<?xml version="1.0" standalone="no"?>
<!DOCTYPE svg PUBLIC "-//W3C//DTD SVG 20010904//EN"
 "http://www.w3.org/TR/2001/REC-SVG-20010904/DTD/svg10.dtd">
<svg version="1.0" xmlns="http://www.w3.org/2000/svg"
 width="300.000000pt" height="175.000000pt" viewBox="0 0 300.000000 175.000000"
 preserveAspectRatio="xMidYMid meet">

<g transform="translate(0.000000,175.000000) scale(0.100000,-0.100000)"
fill="#000000" stroke="none">
<path d="M1457 1200 l-37 -5 76 -133 c67 -116 78 -130 89 -115 18 28 145 249
145 254 0 6 -227 5 -273 -1z"/>
<path d="M1076 1175 c5 -11 4 -16 -3 -12 -7 5 -117 -169 -141 -224 -2 -4 61
-7 140 -7 79 0 135 2 126 5 -10 2 -15 10 -11 19 4 12 8 12 21 2 10 -8 7 0 -6
19 -12 17 -22 37 -22 44 0 9 -3 10 -11 2 -8 -8 -8 -17 0 -31 17 -32 4 -48 -39
-50 -30 -2 -40 1 -40 13 0 20 -24 19 -45 -2 -9 -9 -20 -12 -23 -7 -11 15 -42
16 -42 2 0 -9 -3 -9 -10 2 -13 20 -12 39 1 20 8 -12 9 -9 4 10 l-6 25 19 -24
20 -24 -2 36 c0 20 3 37 9 37 5 0 9 -13 9 -30 -1 -16 2 -27 7 -24 4 2 6 18 4
34 -4 34 13 40 39 15 8 -8 22 -15 31 -15 10 0 15 -6 12 -12 -2 -7 -1 -22 4
-33 7 -18 8 -18 9 5 0 14 7 34 15 44 8 11 15 26 15 34 0 12 -2 12 -17 1 -15
-13 -15 -12 -4 9 6 12 8 22 3 22 -4 0 -13 15 -20 33 -13 35 -37 45 -47 19 -3
-8 -3 -17 0 -20 3 -3 5 0 5 6 0 7 5 12 10 12 6 0 10 -11 10 -25 0 -14 -5 -25
-11 -25 -5 0 -7 5 -3 12 4 6 3 8 -3 5 -6 -4 -8 -17 -6 -30 4 -22 1 -24 -26
-23 -17 1 -29 6 -27 11 2 6 11 9 20 9 18 -2 22 12 4 18 -13 5 24 74 43 80 7 2
4 9 -5 17 -14 12 -16 12 -10 -4z m52 -130 c0 -31 -2 -34 -19 -24 -31 16 -23
54 13 58 3 1 6 -15 6 -34z"/>
<path d="M1070 990 c-9 -6 -10 -10 -3 -10 6 0 15 5 18 10 8 12 4 12 -15 0z"/>
<path d="M1144 989 c-3 -6 -1 -16 5 -22 8 -8 11 -5 11 11 0 24 -5 28 -16 11z"/>
<path d="M1488 775 l-77 -135 161 0 160 0 -19 33 c-11 17 -45 78 -77 135 -32
56 -61 102 -65 102 -3 0 -41 -61 -83 -135z"/>
<path d="M1134 533 c-37 -7 -55 -38 -61 -101 -7 -76 9 -127 45 -140 80 -31
191 -24 229 14 43 43 17 59 -47 28 -38 -19 -158 -13 -172 8 -16 26 1 33 120
52 122 20 122 20 122 47 0 44 -20 77 -53 89 -29 10 -139 12 -183 3z m164 -49
c20 -4 33 -34 15 -34 -17 -1 -147 -21 -169 -26 -20 -5 -24 -2 -24 19 0 13 6
29 13 35 23 19 90 22 165 6z"/>
<path d="M1952 530 c-47 -19 -67 -125 -37 -195 18 -44 49 -57 140 -57 122 -1
148 22 148 132 0 75 -13 107 -49 120 -32 12 -171 12 -202 0z m196 -57 c6 -9
12 -40 12 -69 0 -69 -13 -79 -108 -79 -88 1 -102 13 -102 85 0 76 23 92 125
84 39 -3 64 -11 73 -21z"/>
<path d="M2313 529 c-65 -33 -64 -206 1 -238 37 -17 163 -19 203 -2 41 17 57
62 51 142 -7 90 -24 103 -141 106 -52 2 -101 -2 -114 -8z m194 -51 c19 -15 17
-122 -2 -138 -20 -17 -91 -23 -140 -13 -35 8 -41 13 -49 46 -6 23 -6 51 0 74
7 31 15 39 39 45 39 9 135 0 152 -14z"/>
<path d="M432 517 c7 -30 124 -237 136 -242 21 -8 28 0 82 100 28 52 54 97 59
99 4 3 32 -40 62 -94 54 -100 66 -114 87 -101 10 6 142 235 142 246 0 3 -10 5
-23 5 -18 0 -34 -19 -76 -90 -61 -103 -49 -104 -121 18 -36 61 -46 72 -69 72
-22 0 -34 -14 -80 -91 l-53 -91 -55 91 c-39 67 -60 91 -74 91 -12 0 -19 -6
-17 -13z"/>
<path d="M1430 520 c0 -13 122 -233 134 -242 5 -3 15 -4 22 -1 11 4 144 231
144 247 0 3 -10 6 -22 6 -18 0 -33 -17 -67 -78 -24 -42 -49 -83 -54 -90 -7 -9
-24 12 -64 78 -38 64 -60 90 -74 90 -10 0 -19 -4 -19 -10z"/>
<path d="M1800 401 c0 -125 1 -131 20 -131 20 0 20 5 18 127 -3 112 -5 128
-20 131 -16 3 -18 -8 -18 -127z"/>
</g>
</svg>
